<svg width="30" height="30" viewBox="0 0 30 30" fill="none" xmlns="http://www.w3.org/2000/svg">
<circle cx="15" cy="15" r="15" fill="#D9D9D9"/>
<g clip-path="url(#clip0_107_809)">
<path d="M15.1524 7.93433H15.2636C16.2911 7.93808 21.4974 7.97558 22.9011 8.35308C23.3255 8.46829 23.7122 8.69285 24.0226 9.00434C24.333 9.31582 24.5562 9.70331 24.6699 10.1281C24.7961 10.6031 24.8849 11.2318 24.9449 11.8806L24.9574 12.0106L24.9849 12.3356L24.9949 12.4656C25.0761 13.6081 25.0861 14.6781 25.0874 14.9118V15.0056C25.0861 15.2481 25.0749 16.3906 24.9849 17.5806L24.9749 17.7118L24.9636 17.8418C24.9011 18.5568 24.8086 19.2668 24.6699 19.7893C24.5565 20.2143 24.3334 20.6019 24.023 20.9135C23.7125 21.225 23.3257 21.4495 22.9011 21.5643C21.4511 21.9543 15.9399 21.9818 15.1761 21.9831H14.9986C14.6124 21.9831 13.0149 21.9756 11.3399 21.9181L11.1274 21.9106L11.0186 21.9056L10.8049 21.8968L10.5911 21.8881C9.20362 21.8268 7.88237 21.7281 7.27362 21.5631C6.84924 21.4483 6.46245 21.2241 6.15203 20.9128C5.8416 20.6014 5.61843 20.214 5.50487 19.7893C5.36612 19.2681 5.27362 18.5568 5.21112 17.8418L5.20112 17.7106L5.19112 17.5806C5.12943 16.7336 5.09525 15.8848 5.08862 15.0356L5.08862 14.8818C5.09112 14.6131 5.10112 13.6843 5.16862 12.6593L5.17737 12.5306L5.18112 12.4656L5.19112 12.3356L5.21862 12.0106L5.23112 11.8806C5.29112 11.2318 5.37987 10.6018 5.50612 10.1281C5.61949 9.70314 5.84258 9.31546 6.15301 9.00393C6.46345 8.69239 6.85033 8.46794 7.27487 8.35308C7.88362 8.19058 9.20487 8.09058 10.5924 8.02808L10.8049 8.01933L11.0199 8.01183L11.1274 8.00808L11.3411 7.99933C12.5308 7.96104 13.7209 7.93979 14.9111 7.93558H15.1524V7.93433ZM13.0886 11.9468V17.9693L18.2849 14.9593L13.0886 11.9468Z" fill="#18181B"/>
</g>
<defs>
<clipPath id="clip0_107_809">
<rect width="20" height="20" fill="white" transform="translate(5 5)"/>
</clipPath>
</defs>
</svg>
