<svg width="54" height="54" viewBox="0 0 54 54" fill="none" xmlns="http://www.w3.org/2000/svg">
<circle cx="27" cy="27" r="27" fill="#D9D9D9"/>
<rect x="7.875" y="24.25" width="37.5" height="18.75" fill="#322821"/>
<rect x="6" y="13" width="41.25" height="11.25" fill="#7E6B59"/>
<path d="M10.7063 21.0525C10.0713 21.0525 9.54631 20.905 9.13131 20.61C8.72131 20.31 8.49881 19.8725 8.46381 19.2975H10.2338C10.2588 19.6025 10.3938 19.755 10.6388 19.755C10.7288 19.755 10.8038 19.735 10.8638 19.695C10.9288 19.65 10.9613 19.5825 10.9613 19.4925C10.9613 19.3675 10.8938 19.2675 10.7588 19.1925C10.6238 19.1125 10.4138 19.0225 10.1288 18.9225C9.78881 18.8025 9.50631 18.685 9.28131 18.57C9.06131 18.455 8.87131 18.2875 8.71131 18.0675C8.55131 17.8475 8.47381 17.565 8.47881 17.22C8.47881 16.875 8.56631 16.5825 8.74131 16.3425C8.92131 16.0975 9.16381 15.9125 9.46881 15.7875C9.77881 15.6625 10.1263 15.6 10.5113 15.6C11.1613 15.6 11.6763 15.75 12.0563 16.05C12.4413 16.35 12.6438 16.7725 12.6638 17.3175H10.8713C10.8663 17.1675 10.8288 17.06 10.7588 16.995C10.6888 16.93 10.6038 16.8975 10.5038 16.8975C10.4338 16.8975 10.3763 16.9225 10.3313 16.9725C10.2863 17.0175 10.2638 17.0825 10.2638 17.1675C10.2638 17.2875 10.3288 17.3875 10.4588 17.4675C10.5938 17.5425 10.8063 17.635 11.0963 17.745C11.4313 17.87 11.7063 17.99 11.9213 18.105C12.1413 18.22 12.3313 18.38 12.4913 18.585C12.6513 18.79 12.7313 19.0475 12.7313 19.3575C12.7313 19.6825 12.6513 19.975 12.4913 20.235C12.3313 20.49 12.0988 20.69 11.7938 20.835C11.4888 20.98 11.1263 21.0525 10.7063 21.0525ZM18.1538 15.69V21H16.4888V18.93H14.9063V21H13.2413V15.69H14.9063V17.6025H16.4888V15.69H18.1538ZM21.4154 21.0525C20.9154 21.0525 20.4554 20.935 20.0354 20.7C19.6204 20.465 19.2904 20.14 19.0454 19.725C18.8004 19.31 18.6779 18.8425 18.6779 18.3225C18.6779 17.8025 18.8004 17.335 19.0454 16.92C19.2904 16.505 19.6204 16.1825 20.0354 15.9525C20.4554 15.7175 20.9154 15.6 21.4154 15.6C21.9154 15.6 22.3729 15.7175 22.7879 15.9525C23.2029 16.1825 23.5304 16.505 23.7704 16.92C24.0154 17.335 24.1379 17.8025 24.1379 18.3225C24.1379 18.8425 24.0154 19.31 23.7704 19.725C23.5304 20.14 23.2004 20.465 22.7804 20.7C22.3654 20.935 21.9104 21.0525 21.4154 21.0525ZM21.4154 19.5C21.7454 19.5 22.0004 19.395 22.1804 19.185C22.3604 18.97 22.4504 18.6825 22.4504 18.3225C22.4504 17.9575 22.3604 17.67 22.1804 17.46C22.0004 17.245 21.7454 17.1375 21.4154 17.1375C21.0804 17.1375 20.8229 17.245 20.6429 17.46C20.4629 17.67 20.3729 17.9575 20.3729 18.3225C20.3729 18.6825 20.4629 18.97 20.6429 19.185C20.8229 19.395 21.0804 19.5 21.4154 19.5ZM26.3286 17.0175V17.67H27.9786V18.9225H26.3286V19.6725H28.2036V21H24.6636V15.69H28.2036V17.0175H26.3286ZM32.3111 18.2775C32.6311 18.3525 32.8786 18.5075 33.0536 18.7425C33.2336 18.9725 33.3236 19.24 33.3236 19.545C33.3236 20.01 33.1686 20.37 32.8586 20.625C32.5536 20.875 32.1136 21 31.5386 21H28.7561V15.69H31.4636C32.0036 15.69 32.4286 15.8075 32.7386 16.0425C33.0486 16.2775 33.2036 16.62 33.2036 17.07C33.2036 17.38 33.1211 17.6425 32.9561 17.8575C32.7961 18.0675 32.5811 18.2075 32.3111 18.2775ZM30.4211 17.76H31.0661C31.2161 17.76 31.3261 17.73 31.3961 17.67C31.4711 17.61 31.5086 17.5175 31.5086 17.3925C31.5086 17.2625 31.4711 17.1675 31.3961 17.1075C31.3261 17.0425 31.2161 17.01 31.0661 17.01H30.4211V17.76ZM31.1786 19.665C31.3286 19.665 31.4386 19.6375 31.5086 19.5825C31.5836 19.5225 31.6211 19.4275 31.6211 19.2975C31.6211 19.0425 31.4736 18.915 31.1786 18.915H30.4211V19.665H31.1786ZM36.3955 21.0525C35.8955 21.0525 35.4355 20.935 35.0155 20.7C34.6005 20.465 34.2705 20.14 34.0255 19.725C33.7805 19.31 33.658 18.8425 33.658 18.3225C33.658 17.8025 33.7805 17.335 34.0255 16.92C34.2705 16.505 34.6005 16.1825 35.0155 15.9525C35.4355 15.7175 35.8955 15.6 36.3955 15.6C36.8955 15.6 37.353 15.7175 37.768 15.9525C38.183 16.1825 38.5105 16.505 38.7505 16.92C38.9955 17.335 39.118 17.8025 39.118 18.3225C39.118 18.8425 38.9955 19.31 38.7505 19.725C38.5105 20.14 38.1805 20.465 37.7605 20.7C37.3455 20.935 36.8905 21.0525 36.3955 21.0525ZM36.3955 19.5C36.7255 19.5 36.9805 19.395 37.1605 19.185C37.3405 18.97 37.4305 18.6825 37.4305 18.3225C37.4305 17.9575 37.3405 17.67 37.1605 17.46C36.9805 17.245 36.7255 17.1375 36.3955 17.1375C36.0605 17.1375 35.803 17.245 35.623 17.46C35.443 17.67 35.353 17.9575 35.353 18.3225C35.353 18.6825 35.443 18.97 35.623 19.185C35.803 19.395 36.0605 19.5 36.3955 19.5ZM43.0262 21L42.0512 19.62L41.2412 21H39.3437L41.0912 18.2625L39.2687 15.69H41.2412L42.1787 17.0175L42.9587 15.69H44.8562L43.1387 18.375L44.9987 21H43.0262Z" fill="white"/>
</svg>
