<svg width="30" height="30" viewBox="0 0 30 30" fill="none" xmlns="http://www.w3.org/2000/svg">
<circle cx="15" cy="15" r="15" fill="#D9D9D9"/>
<g clip-path="url(#clip0_107_799)">
<path d="M11.2539 23.7214C18.8014 23.7214 22.9302 17.4677 22.9302 12.0539C22.9302 11.8789 22.9302 11.7014 22.9227 11.5264C23.7265 10.9446 24.4203 10.2241 24.9714 9.39895C24.2206 9.73001 23.4249 9.9482 22.6102 10.0464C23.4684 9.53349 24.1111 8.72641 24.4189 7.7752C23.6127 8.25285 22.7302 8.58816 21.8102 8.76645C21.1917 8.10773 20.3732 7.67134 19.4815 7.52489C18.5899 7.37844 17.6748 7.5301 16.8781 7.95637C16.0814 8.38264 15.4474 9.05973 15.0745 9.88277C14.7016 10.7058 14.6104 11.6289 14.8152 12.5089C13.1836 12.4271 11.5875 12.0033 10.1302 11.2649C8.67302 10.5265 7.38729 9.49 6.35644 8.2227C5.83311 9.12655 5.6734 10.1957 5.90974 11.213C6.14608 12.2304 6.76075 13.1196 7.62894 13.7002C6.97836 13.6781 6.34209 13.5034 5.77144 13.1902V13.2464C5.77256 14.1933 6.10057 15.1107 6.70003 15.8436C7.29949 16.5766 8.13362 17.08 9.06144 17.2689C8.70926 17.366 8.34547 17.4143 7.98019 17.4127C7.72267 17.4135 7.46566 17.3896 7.21269 17.3414C7.47492 18.1565 7.98553 18.8692 8.67299 19.3795C9.36046 19.8899 10.1904 20.1725 11.0464 20.1877C9.59213 21.3299 7.79569 21.9495 5.94644 21.9464C5.62059 21.9478 5.29496 21.929 4.97144 21.8902C6.84833 23.0868 9.02806 23.7221 11.2539 23.7214Z" fill="#18181B"/>
</g>
<defs>
<clipPath id="clip0_107_799">
<rect width="20" height="20" fill="white" transform="translate(4.97144 4.97144)"/>
</clipPath>
</defs>
</svg>
