<svg width="57" height="31" viewBox="0 0 57 31" fill="none" xmlns="http://www.w3.org/2000/svg">
<rect y="0.394043" width="57" height="9.31484" fill="white"/>
<rect x="1.69312" y="9.70886" width="53.6139" height="21.2911" fill="white"/>
<path d="M5.25714 9.03222C4.32998 9.03222 3.56343 8.81686 2.95749 8.38613C2.35885 7.9481 2.03397 7.30931 1.98287 6.46975H4.56725C4.60375 6.91508 4.80086 7.13774 5.15859 7.13774C5.28999 7.13774 5.3995 7.10854 5.48711 7.05014C5.58201 6.98443 5.62947 6.88588 5.62947 6.75447C5.62947 6.57196 5.53091 6.42595 5.3338 6.31644C5.13668 6.19963 4.83006 6.06822 4.41393 5.92221C3.9175 5.747 3.50502 5.57544 3.1765 5.40753C2.85528 5.23962 2.57786 4.99505 2.34425 4.67383C2.11063 4.35261 1.99747 3.94013 2.00477 3.43639C2.00477 2.93266 2.13253 2.50558 2.38805 2.15516C2.65087 1.79743 3.00494 1.52732 3.45027 1.3448C3.9029 1.16229 4.41028 1.07103 4.97242 1.07103C5.92149 1.07103 6.67344 1.29005 7.22827 1.72808C7.79041 2.16611 8.08608 2.783 8.11528 3.57875H5.49806C5.49076 3.35974 5.436 3.20278 5.3338 3.10787C5.23159 3.01297 5.10748 2.96551 4.96147 2.96551C4.85927 2.96551 4.77531 3.00201 4.7096 3.07502C4.6439 3.14072 4.61105 3.23563 4.61105 3.35974C4.61105 3.53495 4.70595 3.68096 4.89577 3.79777C5.09288 3.90728 5.40315 4.04234 5.82658 4.20295C6.31571 4.38546 6.71724 4.56067 7.03116 4.72858C7.35238 4.89649 7.6298 5.13011 7.86342 5.42943C8.09703 5.72875 8.21384 6.10472 8.21384 6.55735C8.21384 7.03189 8.09703 7.45897 7.86342 7.83859C7.6298 8.21092 7.29033 8.50294 6.845 8.71465C6.39967 8.92636 5.87038 9.03222 5.25714 9.03222ZM16.1312 1.20244V8.95557H13.7002V5.93316H11.3896V8.95557H8.95849V1.20244H11.3896V3.99488H13.7002V1.20244H16.1312ZM20.8935 9.03222C20.1635 9.03222 19.4918 8.86066 18.8786 8.51754C18.2726 8.17441 17.7908 7.69988 17.4331 7.09394C17.0754 6.488 16.8965 5.8054 16.8965 5.04615C16.8965 4.2869 17.0754 3.60431 17.4331 2.99836C17.7908 2.39242 18.2726 1.92154 18.8786 1.58572C19.4918 1.2426 20.1635 1.07103 20.8935 1.07103C21.6236 1.07103 22.2916 1.2426 22.8975 1.58572C23.5034 1.92154 23.9816 2.39242 24.332 2.99836C24.6898 3.60431 24.8686 4.2869 24.8686 5.04615C24.8686 5.8054 24.6898 6.488 24.332 7.09394C23.9816 7.69988 23.4998 8.17441 22.8865 8.51754C22.2806 8.86066 21.6163 9.03222 20.8935 9.03222ZM20.8935 6.76542C21.3753 6.76542 21.7477 6.61211 22.0105 6.30549C22.2733 5.99157 22.4047 5.57179 22.4047 5.04615C22.4047 4.51322 22.2733 4.09344 22.0105 3.78682C21.7477 3.4729 21.3753 3.31594 20.8935 3.31594C20.4044 3.31594 20.0284 3.4729 19.7656 3.78682C19.5028 4.09344 19.3714 4.51322 19.3714 5.04615C19.3714 5.57179 19.5028 5.99157 19.7656 6.30549C20.0284 6.61211 20.4044 6.76542 20.8935 6.76542ZM28.0672 3.14072V4.09344H30.4764V5.92221H28.0672V7.01729H30.8049V8.95557H25.6361V1.20244H30.8049V3.14072H28.0672ZM36.8022 4.98045C37.2694 5.08996 37.6308 5.31627 37.8863 5.65939C38.1491 5.99522 38.2805 6.38579 38.2805 6.83112C38.2805 7.51007 38.0542 8.0357 37.6016 8.40803C37.1563 8.77305 36.5138 8.95557 35.6743 8.95557H31.6115V1.20244H35.5648C36.3532 1.20244 36.9738 1.37401 37.4264 1.71713C37.879 2.06025 38.1053 2.56034 38.1053 3.21738C38.1053 3.67001 37.9849 4.05329 37.744 4.36721C37.5103 4.67383 37.1964 4.87824 36.8022 4.98045ZM34.0426 4.22485H34.9844C35.2034 4.22485 35.364 4.18104 35.4662 4.09344C35.5757 4.00583 35.6305 3.87077 35.6305 3.68826C35.6305 3.49845 35.5757 3.35974 35.4662 3.27213C35.364 3.17723 35.2034 3.12977 34.9844 3.12977H34.0426V4.22485ZM35.1486 7.00634C35.3677 7.00634 35.5283 6.96618 35.6305 6.88588C35.74 6.79827 35.7947 6.65956 35.7947 6.46975C35.7947 6.09742 35.5794 5.91126 35.1486 5.91126H34.0426V7.00634H35.1486ZM42.7659 9.03222C42.0358 9.03222 41.3642 8.86066 40.751 8.51754C40.145 8.17441 39.6632 7.69988 39.3055 7.09394C38.9477 6.488 38.7689 5.8054 38.7689 5.04615C38.7689 4.2869 38.9477 3.60431 39.3055 2.99836C39.6632 2.39242 40.145 1.92154 40.751 1.58572C41.3642 1.2426 42.0358 1.07103 42.7659 1.07103C43.4959 1.07103 44.1639 1.2426 44.7699 1.58572C45.3758 1.92154 45.854 2.39242 46.2044 2.99836C46.5622 3.60431 46.741 4.2869 46.741 5.04615C46.741 5.8054 46.5622 6.488 46.2044 7.09394C45.854 7.69988 45.3722 8.17441 44.7589 8.51754C44.153 8.86066 43.4886 9.03222 42.7659 9.03222ZM42.7659 6.76542C43.2477 6.76542 43.6201 6.61211 43.8829 6.30549C44.1457 5.99157 44.2771 5.57179 44.2771 5.04615C44.2771 4.51322 44.1457 4.09344 43.8829 3.78682C43.6201 3.4729 43.2477 3.31594 42.7659 3.31594C42.2768 3.31594 41.9008 3.4729 41.638 3.78682C41.3752 4.09344 41.2437 4.51322 41.2437 5.04615C41.2437 5.57179 41.3752 5.99157 41.638 6.30549C41.9008 6.61211 42.2768 6.76542 42.7659 6.76542ZM52.4473 8.95557L51.0237 6.94063L49.841 8.95557H47.0705L49.622 4.95855L46.961 1.20244H49.841L51.2099 3.14072L52.3487 1.20244H55.1193L52.6116 5.12281L55.3273 8.95557H52.4473Z" fill="#18181B"/>
</svg>
