<svg width="203" height="109" viewBox="0 0 203 109" fill="none" xmlns="http://www.w3.org/2000/svg">
<rect width="203" height="33.1739" fill="#7E6B59"/>
<rect x="6.02979" y="33.1738" width="190.941" height="75.8261" fill="#322821"/>
<path d="M18.7228 31.273C15.4208 31.273 12.6908 30.506 10.5328 28.972C8.4008 27.412 7.2438 25.137 7.0618 22.147H16.2658C16.3958 23.733 17.0978 24.526 18.3718 24.526C18.8398 24.526 19.2298 24.422 19.5418 24.214C19.8798 23.98 20.0488 23.629 20.0488 23.161C20.0488 22.511 19.6978 21.991 18.9958 21.601C18.2938 21.185 17.2018 20.717 15.7198 20.197C13.9518 19.573 12.4828 18.962 11.3128 18.364C10.1688 17.766 9.1808 16.895 8.3488 15.751C7.5168 14.607 7.1138 13.138 7.1398 11.344C7.1398 9.55 7.5948 8.029 8.5048 6.781C9.4408 5.507 10.7018 4.545 12.2878 3.895C13.8998 3.245 15.7068 2.92 17.7088 2.92C21.0888 2.92 23.7668 3.7 25.7428 5.26C27.7448 6.82 28.7978 9.017 28.9018 11.851H19.5808C19.5548 11.071 19.3598 10.512 18.9958 10.174C18.6318 9.836 18.1898 9.667 17.6698 9.667C17.3058 9.667 17.0068 9.797 16.7728 10.057C16.5388 10.291 16.4218 10.629 16.4218 11.071C16.4218 11.695 16.7598 12.215 17.4358 12.631C18.1378 13.021 19.2428 13.502 20.7508 14.074C22.4928 14.724 23.9228 15.348 25.0408 15.946C26.1848 16.544 27.1728 17.376 28.0048 18.442C28.8368 19.508 29.2528 20.847 29.2528 22.459C29.2528 24.149 28.8368 25.67 28.0048 27.022C27.1728 28.348 25.9638 29.388 24.3778 30.142C22.7918 30.896 20.9068 31.273 18.7228 31.273ZM57.4498 3.388V31H48.7918V20.236H40.5628V31H31.9048V3.388H40.5628V13.333H48.7918V3.388H57.4498ZM74.4102 31.273C71.8102 31.273 69.4182 30.662 67.2342 29.44C65.0762 28.218 63.3602 26.528 62.0862 24.37C60.8122 22.212 60.1752 19.781 60.1752 17.077C60.1752 14.373 60.8122 11.942 62.0862 9.784C63.3602 7.626 65.0762 5.949 67.2342 4.753C69.4182 3.531 71.8102 2.92 74.4102 2.92C77.0102 2.92 79.3892 3.531 81.5472 4.753C83.7052 5.949 85.4082 7.626 86.6562 9.784C87.9302 11.942 88.5672 14.373 88.5672 17.077C88.5672 19.781 87.9302 22.212 86.6562 24.37C85.4082 26.528 83.6922 28.218 81.5082 29.44C79.3502 30.662 76.9842 31.273 74.4102 31.273ZM74.4102 23.2C76.1262 23.2 77.4522 22.654 78.3882 21.562C79.3242 20.444 79.7922 18.949 79.7922 17.077C79.7922 15.179 79.3242 13.684 78.3882 12.592C77.4522 11.474 76.1262 10.915 74.4102 10.915C72.6682 10.915 71.3292 11.474 70.3932 12.592C69.4572 13.684 68.9892 15.179 68.9892 17.077C68.9892 18.949 69.4572 20.444 70.3932 21.562C71.3292 22.654 72.6682 23.2 74.4102 23.2ZM99.9586 10.291V13.684H108.539V20.197H99.9586V24.097H109.709V31H91.3006V3.388H109.709V10.291H99.9586ZM131.067 16.843C132.731 17.233 134.018 18.039 134.928 19.261C135.864 20.457 136.332 21.848 136.332 23.434C136.332 25.852 135.526 27.724 133.914 29.05C132.328 30.35 130.04 31 127.05 31H112.581V3.388H126.66C129.468 3.388 131.678 3.999 133.29 5.221C134.902 6.443 135.708 8.224 135.708 10.564C135.708 12.176 135.279 13.541 134.421 14.659C133.589 15.751 132.471 16.479 131.067 16.843ZM121.239 14.152H124.593C125.373 14.152 125.945 13.996 126.309 13.684C126.699 13.372 126.894 12.891 126.894 12.241C126.894 11.565 126.699 11.071 126.309 10.759C125.945 10.421 125.373 10.252 124.593 10.252H121.239V14.152ZM125.178 24.058C125.958 24.058 126.53 23.915 126.894 23.629C127.284 23.317 127.479 22.823 127.479 22.147C127.479 20.821 126.712 20.158 125.178 20.158H121.239V24.058H125.178ZM152.307 31.273C149.707 31.273 147.315 30.662 145.131 29.44C142.973 28.218 141.257 26.528 139.983 24.37C138.709 22.212 138.072 19.781 138.072 17.077C138.072 14.373 138.709 11.942 139.983 9.784C141.257 7.626 142.973 5.949 145.131 4.753C147.315 3.531 149.707 2.92 152.307 2.92C154.907 2.92 157.286 3.531 159.444 4.753C161.602 5.949 163.305 7.626 164.553 9.784C165.827 11.942 166.464 14.373 166.464 17.077C166.464 19.781 165.827 22.212 164.553 24.37C163.305 26.528 161.589 28.218 159.405 29.44C157.247 30.662 154.881 31.273 152.307 31.273ZM152.307 23.2C154.023 23.2 155.349 22.654 156.285 21.562C157.221 20.444 157.689 18.949 157.689 17.077C157.689 15.179 157.221 13.684 156.285 12.592C155.349 11.474 154.023 10.915 152.307 10.915C150.565 10.915 149.226 11.474 148.29 12.592C147.354 13.684 146.886 15.179 146.886 17.077C146.886 18.949 147.354 20.444 148.29 21.562C149.226 22.654 150.565 23.2 152.307 23.2ZM186.786 31L181.716 23.824L177.504 31H167.637L176.724 16.765L167.247 3.388H177.504L182.379 10.291L186.435 3.388H196.302L187.371 17.35L197.043 31H186.786Z" fill="white"/>
</svg>
